<svg width="13" height="20" viewBox="0 0 13 20" fill="none" xmlns="http://www.w3.org/2000/svg">
<path d="M8.09076 4.63024L10.3907 13.2138C10.8327 14.8633 9.85465 16.5574 8.20511 16.9994C6.55558 17.4414 4.86153 16.4633 4.41954 14.8138L1.91958 5.48381C1.64359 4.45378 2.25556 3.39382 3.28558 3.11783C4.31561 2.84183 5.37557 3.4538 5.65157 4.48383L7.75153 12.321C7.86153 12.7315 7.61565 13.1574 7.20513 13.2674C6.79461 13.3774 6.36874 13.1315 6.25874 12.721L4.35877 5.63022L3.23917 5.93021L5.13914 13.021C5.41514 14.051 6.4751 14.663 7.50513 14.387C8.53515 14.111 9.14712 13.051 8.87113 12.021L6.77116 4.18383C6.32917 2.5343 4.63513 1.55624 2.98559 1.99823C1.33605 2.44022 0.357994 4.13427 0.799986 5.78381L3.29994 15.1138C3.90793 17.3828 6.23606 18.727 8.50511 18.119C10.7742 17.511 12.1183 15.1829 11.5103 12.9138L9.21035 4.33024L8.09076 4.63024Z" fill="#023366"/>
</svg>
