<?xml version="1.0" encoding="UTF-8"?>
<svg xmlns="http://www.w3.org/2000/svg" xmlns:xlink="http://www.w3.org/1999/xlink" viewBox="0 0 24 24" width="24px" height="24px">
<g id="surface31012944">
<path style=" stroke:none;fill-rule:nonzero;fill:rgb(21.568628%,42.745098%,27.843139%);fill-opacity:1;" d="M 12 3 L 2 5 L 2 19 L 12 21 Z M 14 5 L 14 7 L 16 7 L 16 9 L 14 9 L 14 11 L 16 11 L 16 13 L 14 13 L 14 15 L 16 15 L 16 17 L 14 17 L 14 19 L 21 19 C 21.550781 19 22 18.550781 22 18 L 22 6 C 22 5.449219 21.550781 5 21 5 Z M 18 7 L 20 7 L 20 9 L 18 9 Z M 4.175781 8.296875 L 5.953125 8.296875 L 6.875 10.511719 C 6.953125 10.691406 7.007812 10.902344 7.066406 11.140625 L 7.09375 11.140625 C 7.125 10.996094 7.191406 10.777344 7.292969 10.496094 L 8.324219 8.296875 L 9.945312 8.296875 L 8.007812 11.96875 L 10 15.703125 L 8.269531 15.703125 L 7.15625 13.289062 C 7.117188 13.203125 7.066406 13.03125 7.023438 12.796875 L 7.007812 12.796875 C 6.984375 12.910156 6.933594 13.078125 6.859375 13.308594 L 5.734375 15.703125 L 4 15.703125 L 6.0625 11.996094 Z M 18 11 L 20 11 L 20 13 L 18 13 Z M 18 15 L 20 15 L 20 17 L 18 17 Z M 18 15 "/>
</g>
</svg>
